<?xml version="1.0" encoding="UTF-8"?>
<svg version="1.1" xmlns="http://www.w3.org/2000/svg" width="280" height="280">
<path d="M0 0 C92.4 0 184.8 0 280 0 C280 92.4 280 184.8 280 280 C187.6 280 95.2 280 0 280 C0 187.6 0 95.2 0 0 Z " fill="#F0F0F0" transform="translate(0,0)"/>
<path d="M0 0 C5.83296044 3.61102501 10.93547731 7.30315051 15.05371094 12.87890625 C13.90515625 13.18183594 12.75660156 13.48476562 11.57324219 13.796875 C-5.33332488 18.22418234 -5.33332488 18.22418234 -20.94628906 25.87890625 C-21.79707031 26.3996875 -22.64785156 26.92046875 -23.52441406 27.45703125 C-29.62886229 31.27677371 -35.37123759 35.32405829 -40.94628906 39.87890625 C-41.94595703 40.64074219 -41.94595703 40.64074219 -42.96582031 41.41796875 C-53.09141937 49.52643664 -59.06517774 61.10022449 -63.94628906 72.87890625 C-64.30851562 73.64203125 -64.67074219 74.40515625 -65.04394531 75.19140625 C-67.73222761 83.19806522 -67.0987978 92.04375845 -67.07128906 100.37890625 C-67.07515625 101.55066406 -67.07902344 102.72242188 -67.08300781 103.9296875 C-67.19813005 115.84458508 -67.19813005 115.84458508 -64.57128906 127.37890625 C-64.17876953 128.47525391 -64.17876953 128.47525391 -63.77832031 129.59375 C-63.50375 130.34785156 -63.22917969 131.10195312 -62.94628906 131.87890625 C-62.37917212 133.56486024 -61.81652886 135.25232697 -61.25878906 136.94140625 C-61.00742188 137.69550781 -60.75605469 138.44960937 -60.49707031 139.2265625 C-60.3153125 139.77183594 -60.13355469 140.31710938 -59.94628906 140.87890625 C-66.08063111 137.87433055 -69.75117427 134.22225289 -73.94628906 128.87890625 C-74.58566406 128.08613281 -75.22503906 127.29335937 -75.88378906 126.4765625 C-83.39250681 116.7240287 -90.549685 104.3629381 -93.00878906 92.19140625 C-93.4838493 89.85536625 -93.87852828 88.01442781 -94.94628906 85.87890625 C-95.20918641 81.28309805 -95.21770145 76.68295394 -95.24145508 72.08056641 C-95.25282504 70.5544293 -95.27302999 69.02832699 -95.30297852 67.50244141 C-95.5788927 53.42927646 -93.94419788 39.99830434 -87.07128906 27.44140625 C-86.72106689 26.77657227 -86.37084473 26.11173828 -86.01000977 25.42675781 C-85.01332463 23.5623891 -83.98943683 21.71759397 -82.94628906 19.87890625 C-82.46289062 19.02683594 -81.97949219 18.17476562 -81.48144531 17.296875 C-75.70216033 7.99976437 -67.33434551 -1.40497874 -57.94628906 -7.12109375 C-57.28628906 -7.53101562 -56.62628906 -7.9409375 -55.94628906 -8.36328125 C-39.73076481 -17.00758646 -14.9224487 -8.59557005 0 0 Z " fill="#7C1A66" transform="translate(142.9462890625,72.12109375)"/>
<path d="M0 0 C1.485 0.02513672 1.485 0.02513672 3 0.05078125 C21.79541244 1.16199651 39.95206957 12.26787281 54 24 C54.79929932 24.65246704 54.79929932 24.65246704 55.61474609 25.31811523 C58.85509792 27.97402004 61.58223311 30.55933173 64 34 C64 34.66 64 35.32 64 36 C64.66 36 65.32 36 66 36 C76.92065062 50.37157621 85.04727468 68.29928661 84.34765625 86.671875 C81.98456272 102.49663614 68.14184548 116.65563572 56 126 C48.96019124 130.72217625 41.32425703 135.0581493 33 137 C32.01 136.67 31.02 136.34 30 136 C30.433125 134.96875 30.86625 133.9375 31.3125 132.875 C40.21144796 109.17258884 40.25753209 79.70722788 30.09765625 56.48828125 C25.67021219 46.98985054 20.67657319 38.70176018 12.3203125 32.2265625 C11.88460937 31.82179688 11.44890625 31.41703125 11 31 C11 30.34 11 29.68 11 29 C10.27039063 28.73832031 9.54078125 28.47664063 8.7890625 28.20703125 C5.95278006 26.97956448 3.83641481 25.5438513 1.375 23.6875 C-3.81266618 19.97762597 -9.13007962 17.44154659 -15 15 C-15.76570313 14.64035156 -16.53140625 14.28070313 -17.3203125 13.91015625 C-25.18549048 10.37749156 -33.54039579 9.29543823 -42 8 C-42 7.34 -42 6.68 -42 6 C-39.64828157 5.17977388 -37.2940149 4.3687346 -34.9375 3.5625 C-33.95233398 3.21735352 -33.95233398 3.21735352 -32.94726562 2.86523438 C-22.17723711 -0.79551423 -11.22796985 -0.2063965 0 0 Z " fill="#F33A35" transform="translate(148,47)"/>
<path d="M0 0 C4.09109314 1.59959803 6.67230412 4.56872985 9.625 7.6875 C14.67820735 12.88070896 19.89604887 17.06950235 26 21 C26.70253906 21.50917969 27.40507813 22.01835937 28.12890625 22.54296875 C34.58475648 27.16787803 41.58996778 30.21821018 49 33 C49.64469238 33.2470166 50.28938477 33.4940332 50.95361328 33.74853516 C70.92460806 41.18062975 91.82350085 39.53856511 111.09912109 30.8828125 C126.67806681 23.64758675 137.91597095 12.94568768 149 0 C151.4454983 4.8909966 147.61898393 13.95288851 146 19 C142.1544936 28.90422211 136.59744346 37.70277854 130 46 C128.8553125 47.546875 128.8553125 47.546875 127.6875 49.125 C112.00290948 65.90386428 88.16473339 78.94899502 64.85644531 80.10644531 C54.77564719 80.36534881 44.85689384 80.35676108 35 78 C34.13246094 77.80535156 33.26492187 77.61070312 32.37109375 77.41015625 C22.60012197 74.88909636 13.95889706 69.12597638 8.68359375 60.390625 C-0.68705602 43.60791979 -5.6000518 24.046208 -1.52832031 4.76660156 C-1.07323571 3.16132085 -0.54594731 1.57669582 0 0 Z " fill="#FCBC57" transform="translate(82,153)"/>
<path d="M0 0 C1.485 0.02513672 1.485 0.02513672 3 0.05078125 C21.79541244 1.16199651 39.95206957 12.26787281 54 24 C54.79929932 24.65246704 54.79929932 24.65246704 55.61474609 25.31811523 C58.85509792 27.97402004 61.58223311 30.55933173 64 34 C64 34.66 64 35.32 64 36 C64.66 36 65.32 36 66 36 C76.92065062 50.37157621 85.04727468 68.29928661 84.34765625 86.671875 C82.49103791 99.10495962 73.55080504 109.38404597 65 118 C64.01 118.66 63.02 119.32 62 120 C63.50202795 116.50321535 65.55176272 114.22193179 68.1875 111.5 C75.64169321 103.39552176 81.28590841 94.85042401 81.15625 83.68359375 C80.77500973 77.13579207 78.80607444 71.07816604 76.5859375 64.9453125 C76 63 76 63 76 60 C75.34 60 74.68 60 74 60 C73.78085938 59.45472656 73.56171875 58.90945312 73.3359375 58.34765625 C69.16755547 48.43504044 63.15293373 39.77277536 55.29296875 32.3984375 C54 31 54 31 54 29 C53.443125 28.7525 52.88625 28.505 52.3125 28.25 C50 27 50 27 47.5625 25 C45.0729536 23.0569394 42.91237434 22.13259002 40 21 C39.505 20.01 39.505 20.01 39 19 C37.41061225 18.27440994 35.8136212 17.56294848 34.19140625 16.9140625 C32.65559918 16.27345848 31.14319155 15.57515987 29.65234375 14.8359375 C13.71167379 6.99784035 -5.46017905 3.68663052 -23 7 C-21.98679687 7.47050781 -20.97359375 7.94101562 -19.9296875 8.42578125 C-18.57810425 9.0546429 -17.22654291 9.68355166 -15.875 10.3125 C-14.87726563 10.7755957 -14.87726563 10.7755957 -13.859375 11.24804688 C8.40556956 21.61652596 8.40556956 21.61652596 16 29 C16 29.66 16 30.32 16 31 C16.56460938 31.21269531 17.12921875 31.42539063 17.7109375 31.64453125 C20.818662 33.48477084 22.46240531 35.80524587 24.625 38.6875 C25.40101563 39.70199219 26.17703125 40.71648437 26.9765625 41.76171875 C29.10574605 45.1692345 29.97812886 48.13618681 31 52 C31.93810838 53.81350199 32.91807858 55.60592771 33.9375 57.375 C44.04277818 77.58555636 42.73607654 109.42393227 37 131 C35.88333395 133.66213187 35.05843907 134.94156093 33 137 C32.01 136.67 31.02 136.34 30 136 C30.433125 134.96875 30.86625 133.9375 31.3125 132.875 C40.21144796 109.17258884 40.25753209 79.70722788 30.09765625 56.48828125 C25.67021219 46.98985054 20.67657319 38.70176018 12.3203125 32.2265625 C11.88460937 31.82179688 11.44890625 31.41703125 11 31 C11 30.34 11 29.68 11 29 C10.27039063 28.73832031 9.54078125 28.47664063 8.7890625 28.20703125 C5.95278006 26.97956448 3.83641481 25.5438513 1.375 23.6875 C-3.81266618 19.97762597 -9.13007962 17.44154659 -15 15 C-15.76570313 14.64035156 -16.53140625 14.28070313 -17.3203125 13.91015625 C-25.18549048 10.37749156 -33.54039579 9.29543823 -42 8 C-42 7.34 -42 6.68 -42 6 C-39.64828157 5.17977388 -37.2940149 4.3687346 -34.9375 3.5625 C-33.95233398 3.21735352 -33.95233398 3.21735352 -32.94726562 2.86523438 C-22.17723711 -0.79551423 -11.22796985 -0.2063965 0 0 Z " fill="#F94743" transform="translate(148,47)"/>
<path d="M0 0 C4.09109314 1.59959803 6.67230412 4.56872985 9.625 7.6875 C14.67820735 12.88070896 19.89604887 17.06950235 26 21 C26.70253906 21.50917969 27.40507813 22.01835937 28.12890625 22.54296875 C34.58475648 27.16787803 41.58996778 30.21821018 49 33 C49.64469238 33.2470166 50.28938477 33.4940332 50.95361328 33.74853516 C70.92460806 41.18062975 91.82350085 39.53856511 111.09912109 30.8828125 C126.67806681 23.64758675 137.91597095 12.94568768 149 0 C150.61287659 3.22575319 149.28469865 6.37601665 148.5 9.75 C148.3256543 10.50337646 148.15130859 11.25675293 147.97167969 12.03295898 C146.07020925 19.63324818 142.84041827 26.19296649 139 33 C137.58639694 28.75919083 139.33913629 25.89318786 140.9375 21.9375 C143.1092537 17.10725359 143.1092537 17.10725359 144 12 C143.608125 12.7425 143.21625 13.485 142.8125 14.25 C140.85286168 17.22324435 138.91646218 18.9809108 136 21 C135.34 21 134.68 21 134 21 C133.67 21.99 133.34 22.98 133 24 C131.6479387 24.98024444 130.28373773 25.94753458 128.8671875 26.83203125 C126.74242123 28.16112145 124.69078783 29.58111113 122.625 31 C104.37883926 43.05334128 82.95707796 46.63837409 61.5 43 C41.73129675 38.43635114 25.23250045 28.07046813 10 15 C9.26265625 14.39671875 8.5253125 13.7934375 7.765625 13.171875 C6.13627715 11.82929237 4.5606153 10.42189394 3 9 C3 8.34 3 7.68 3 7 C2.34 7 1.68 7 1 7 C0.34 9.64 -0.32 12.28 -1 15 C-1.33 15 -1.66 15 -2 15 C-2.19392201 9.47322267 -1.7479503 5.24385089 0 0 Z " fill="#FDC36C" transform="translate(82,153)"/>
<path d="M0 0 C11.44940797 6.67411195 11.44940797 6.67411195 15 12 C8.07557925 11.97108801 3.95807103 10.68840459 -1.6015625 6.62109375 C-14.26009515 -1.93475487 -31.9330483 -5.25114289 -47 -3 C-53.4453414 -0.88351701 -58.37019972 2.05631495 -63 7 C-64.62746694 8.70496537 -66.28891311 10.37897032 -68 12 C-68.66 12 -69.32 12 -70 12 C-70.226875 12.70125 -70.45375 13.4025 -70.6875 14.125 C-71.83148425 16.63087025 -72.80047192 18.08797332 -74.5625 20.125 C-77.14217763 22.80604196 -77.14217763 22.80604196 -78 26 C-78.66 26 -79.32 26 -80 26 C-80.18949219 27.09054688 -80.18949219 27.09054688 -80.3828125 28.203125 C-80.97788475 30.89978152 -81.80429813 33.21019557 -82.875 35.75 C-83.23078125 36.63042969 -83.5865625 37.51085937 -83.953125 38.41796875 C-84.58056489 39.96549773 -85.21398709 41.510651 -85.859375 43.05078125 C-90.72962264 55.84760541 -90.95030349 71.24482782 -89.22265625 84.65234375 C-88.8016835 89.09102139 -88.92507811 93.54631014 -89 98 C-89.33 98 -89.66 98 -90 98 C-90.13277344 97.37351562 -90.26554687 96.74703125 -90.40234375 96.1015625 C-90.57894531 95.28429687 -90.75554687 94.46703125 -90.9375 93.625 C-91.11152344 92.81289062 -91.28554687 92.00078125 -91.46484375 91.1640625 C-91.92330693 88.970537 -91.92330693 88.970537 -93 87 C-93.26289734 82.4041918 -93.27141238 77.80404769 -93.29516602 73.20166016 C-93.30653598 71.67552305 -93.32674093 70.14942074 -93.35668945 68.62353516 C-93.63260364 54.55037021 -91.99790882 41.11939809 -85.125 28.5625 C-84.77477783 27.89766602 -84.42455566 27.23283203 -84.0637207 26.54785156 C-83.06703557 24.68348285 -82.04314777 22.83868772 -81 21 C-80.51660156 20.14792969 -80.03320312 19.29585937 -79.53515625 18.41796875 C-73.75587126 9.12085812 -65.38805644 -0.28388499 -56 -6 C-55.34 -6.40992187 -54.68 -6.81984375 -54 -7.2421875 C-38.20230983 -15.66375028 -14.85323278 -7.74294855 0 0 Z " fill="#862570" transform="translate(141,71)"/>
<path d="M0 0 C1.38761303 4.1628391 -0.24336153 6.86788767 -1.8125 10.75 C-2.36339463 12.13955069 -2.91159851 13.53017132 -3.45703125 14.921875 C-3.86018555 15.94595459 -3.86018555 15.94595459 -4.27148438 16.99072266 C-5.1275512 19.25326966 -5.1275512 19.25326966 -5.95703125 22.6953125 C-7.08283817 26.26247599 -8.4627386 28.29400643 -10.875 31.125 C-11.55304688 31.93195313 -12.23109375 32.73890625 -12.9296875 33.5703125 C-13.61289063 34.37210938 -14.29609375 35.17390625 -15 36 C-15.63808594 36.83402344 -16.27617187 37.66804688 -16.93359375 38.52734375 C-31.23001489 55.63440345 -55.15703338 66.30436671 -77 69 C-87.72393754 69.53253266 -98.51803917 69.50621319 -109 67 C-109.86753906 66.80535156 -110.73507813 66.61070312 -111.62890625 66.41015625 C-118.09215713 64.74253885 -124.21834306 61.78165694 -129 57 C-129.04092937 54.66702567 -129.04241723 52.33294775 -129 50 C-128.50371094 50.39832031 -128.00742188 50.79664063 -127.49609375 51.20703125 C-126.81675781 51.73683594 -126.13742188 52.26664063 -125.4375 52.8125 C-124.77621094 53.33457031 -124.11492187 53.85664063 -123.43359375 54.39453125 C-107.95390459 64.60665363 -86.93634316 64.9447422 -69.25 61.9375 C-51.56495525 57.76722744 -35.45089571 49.31956285 -23 36 C-22.34 36 -21.68 36 -21 36 C-20.73058594 35.42121094 -20.46117187 34.84242188 -20.18359375 34.24609375 C-18.98571067 31.97288328 -17.61826742 30.10515796 -16.0625 28.0625 C-10.46123935 20.22310349 -6.35846587 11.45667561 -2.01220703 2.88256836 C-1 1 -1 1 0 0 Z " fill="#EDAE2C" transform="translate(226,164)"/>
<path d="M0 0 C12.93459341 1.17587213 23.36446737 7.0369819 34 14 C35.05574219 14.66773437 36.11148438 15.33546875 37.19921875 16.0234375 C54.03900722 27.51411669 64.94295632 47.37341484 69.12109375 67.04296875 C71.87792345 82.99063526 73.39681014 107.20637971 66 122 C82.31472072 114.92867874 96.29741464 103.547458 103.5 86.75 C105.00909754 82.51080782 105.66820583 78.47922124 106 74 C106.33 74 106.66 74 107 74 C107.87101257 85.01900026 107.47457533 92.22034009 100 101 C97.42663209 103.92236415 94.8357415 106.78335609 92.13671875 109.58984375 C89.97531403 111.80858683 89.97531403 111.80858683 88.98046875 114.10546875 C85.3023982 121.21249751 73.13370406 126.2454014 66 129 C63.14453125 129.16015625 63.14453125 129.16015625 61 129 C61.29648438 128.48953125 61.59296875 127.9790625 61.8984375 127.453125 C70.08698541 109.21763532 68.76026208 76.68885029 63 58 C61.6205361 54.75863674 60.11330933 51.70263348 58.39453125 48.62890625 C57.10634158 46.20047026 56.37325835 44.08256791 55.6875 41.4375 C51.60909946 28.34867965 37.28654457 18.43603045 25.73828125 12.25390625 C24.60777344 11.69574219 23.47726563 11.13757813 22.3125 10.5625 C21.70744629 10.2631958 21.10239258 9.9638916 20.47900391 9.65551758 C15.79783544 7.35430191 11.06995075 5.16488689 6.3046875 3.04296875 C4.17432285 2.07888848 2.08350797 1.06095682 0 0 Z " fill="#DA2E29" transform="translate(121,53)"/>
<path d="M0 0 C7.44369991 -0.4802387 12.27274142 0.95316682 19 4 C20.81532835 4.76069011 22.63067462 5.52133823 24.4465332 6.28076172 C31.19398049 9.10757399 37.08718151 12.28864725 43.0625 16.5 C43.89910156 17.0878125 44.73570312 17.675625 45.59765625 18.28125 C46.39042969 18.8484375 47.18320313 19.415625 48 20 C48.76183594 20.5259375 49.52367187 21.051875 50.30859375 21.59375 C50.86675781 22.0578125 51.42492187 22.521875 52 23 C52 23.66 52 24.32 52 25 C52.56460938 25.21269531 53.12921875 25.42539063 53.7109375 25.64453125 C56.818662 27.48477084 58.46240531 29.80524587 60.625 32.6875 C61.40101563 33.70199219 62.17703125 34.71648437 62.9765625 35.76171875 C65.10574605 39.1692345 65.97812886 42.13618681 67 46 C67.93810838 47.81350199 68.91807858 49.60592771 69.9375 51.375 C80.04277818 71.58555636 78.73607654 103.42393227 73 125 C71.88333395 127.66213187 71.05843907 128.94156093 69 131 C68.01 130.67 67.02 130.34 66 130 C66.433125 128.96875 66.86625 127.9375 67.3125 126.875 C76.21144796 103.17258884 76.25753209 73.70722788 66.09765625 50.48828125 C61.67021219 40.98985054 56.67657319 32.70176018 48.3203125 26.2265625 C47.88460937 25.82179688 47.44890625 25.41703125 47 25 C47 24.34 47 23.68 47 23 C46.27039063 22.73832031 45.54078125 22.47664063 44.7890625 22.20703125 C41.95278006 20.97956448 39.83641481 19.5438513 37.375 17.6875 C32.19084082 13.98013394 26.87384451 11.42560198 21 9 C20.17628906 8.64035156 19.35257813 8.28070313 18.50390625 7.91015625 C12.16297458 5.22160122 5.7086918 3.52155896 -1 2 C-0.67 1.34 -0.34 0.68 0 0 Z " fill="#D7322D" transform="translate(112,53)"/>
<path d="M0 0 C0 0.66 0 1.32 0 2 C-2.60258324 2.83857688 -5.20685647 3.67103344 -7.8125 4.5 C-8.55048828 4.73847656 -9.28847656 4.97695312 -10.04882812 5.22265625 C-13.13255196 6.19940136 -15.74495809 7 -19 7 C-19 7.66 -19 8.32 -19 9 C-19.59425781 9.20753906 -20.18851562 9.41507813 -20.80078125 9.62890625 C-26.93690015 11.90967206 -32.14573407 14.82953034 -37.5546875 18.51171875 C-40 20 -40 20 -42.1953125 20.45703125 C-44.19373518 20.82667884 -44.19373518 20.82667884 -45.01953125 22.890625 C-45.34308594 23.58671875 -45.66664062 24.2828125 -46 25 C-47.69921875 26.421875 -47.69921875 26.421875 -49.6875 27.75 C-56.42052985 32.61887587 -61.43893387 37.67431399 -63 46 C-63.66 46 -64.32 46 -65 46 C-65.29261719 46.73992187 -65.58523437 47.47984375 -65.88671875 48.2421875 C-66.53198286 49.84063121 -67.19302049 51.43324249 -67.89453125 53.0078125 C-77.13505724 74.32000436 -77.834079 94.53280381 -73 117 C-72.66498249 118.66632895 -72.330862 120.33284097 -72 122 C-73.5 120.625 -73.5 120.625 -75 119 C-75 118.34 -75 117.68 -75 117 C-75.66 117 -76.32 117 -77 117 C-77 116.01 -77 115.02 -77 114 C-77.66 114 -78.32 114 -79 114 C-83 107.25 -83 107.25 -83 105 C-83.99 104.67 -84.98 104.34 -86 104 C-90.44046976 97.24047185 -93.51024345 89.16389514 -93 81 C-91.23050626 83.6542406 -90.15440745 86.07445773 -89.04541016 89.04077148 C-86.19643477 96.65670335 -82.69589489 103.31738034 -78 110 C-78.0721875 109.46117187 -78.144375 108.92234375 -78.21875 108.3671875 C-79.86869181 93.74686982 -80.58212671 78.11843315 -76 64 C-75.69835937 63.03964844 -75.39671875 62.07929688 -75.0859375 61.08984375 C-70.74566018 48.26308924 -63.20887671 35.99353425 -53 27 C-52.34 27 -51.68 27 -51 27 C-50.505 25.515 -50.505 25.515 -50 24 C-46.49767429 20.74784042 -43.06317636 18.424644 -38.88232422 16.07739258 C-37.05590403 15.03199799 -35.27259893 13.93806047 -33.4921875 12.81640625 C-23.43709305 6.52353443 -12.23906633 -0.33997406 0 0 Z " fill="#651454" transform="translate(148,83)"/>
<path d="M0 0 C0.66 0 1.32 0 2 0 C2.0093457 0.55236328 2.01869141 1.10472656 2.02832031 1.67382812 C2.43528989 28.07587122 2.43528989 28.07587122 14 51 C14.07179964 52.51928038 14.08392007 54.04167482 14.0625 55.5625 C14.05347656 56.38878906 14.04445313 57.21507812 14.03515625 58.06640625 C14.02355469 58.70449219 14.01195313 59.34257812 14 60 C8.18743329 58.06247776 6.00808627 50.49676534 3.38671875 45.265625 C-2.28267676 33.25675479 -5.84453888 17.77087543 -2.0390625 4.69921875 C-1 2 -1 2 0 0 Z " fill="#F7BA4B" transform="translate(83,160)"/>
<path d="M0 0 C1.23129156 3.48076654 0.78736542 5.13439241 -0.75 8.4375 C-5.1858609 19.14209489 -6.27036482 28.60588904 -6.3125 40.125 C-6.31797852 41.22134766 -6.32345703 42.31769531 -6.32910156 43.44726562 C-6.27487637 49.66633478 -5.73893582 55.51096796 -4.46313477 61.60083008 C-4.01297222 63.93280019 -3.78038821 66.19461436 -3.625 68.5625 C-2.9903952 74.97777761 -0.21987723 83.78012277 4.4375 88.4375 C6.83632306 90.83632306 9 93.52366549 9 97 C9.66 97 10.32 97 11 97 C11 97.99 11 98.98 11 100 C11.66 100 12.32 100 13 100 C15.625 102.375 15.625 102.375 18 105 C18 105.66 18 106.32 18 107 C11.65901203 105.83083736 8.39178222 100.91551908 4.7578125 95.9140625 C-9.1358847 75.52198414 -12.17653982 53.70325979 -9.1875 29.375 C-9.05384033 28.2756311 -9.05384033 28.2756311 -8.91748047 27.15405273 C-8.21693483 21.82054153 -7.07400274 16.97760657 -5 12 C-4.65453125 11.113125 -4.3090625 10.22625 -3.953125 9.3125 C-1.39967105 2.79934211 -1.39967105 2.79934211 0 0 Z " fill="#6E1A5B" transform="translate(60,100)"/>
<path d="M0 0 C0.99 0.495 0.99 0.495 2 1 C-11.15871471 15.52309757 -27.08147272 24.13932045 -46 29 C-46.59973633 29.176521 -47.19947266 29.35304199 -47.81738281 29.53491211 C-61.43905096 32.43751589 -79.17210487 31.5030911 -92 26 C-92.78890625 25.68804687 -93.5778125 25.37609375 -94.390625 25.0546875 C-99.25181009 22.91216518 -102.4425778 19.91316442 -106 16 C-105.67 15.34 -105.34 14.68 -105 14 C-104.57589844 14.39832031 -104.15179688 14.79664063 -103.71484375 15.20703125 C-102.83505859 16.00173828 -102.83505859 16.00173828 -101.9375 16.8125 C-101.36902344 17.33457031 -100.80054687 17.85664063 -100.21484375 18.39453125 C-86.41090865 28.40055828 -66.13308006 28.54127454 -49.92578125 26.5625 C-31.25000304 23.3870223 -12.68655129 14.23369169 0 0 Z " fill="#92670B" transform="translate(203,200)"/>
<path d="M0 0 C0.66 0.33 1.32 0.66 2 1 C1.73445313 1.59167969 1.46890625 2.18335938 1.1953125 2.79296875 C0.46526355 4.42625344 -0.25979089 6.06177753 -0.98046875 7.69921875 C-1.69401014 9.30947117 -2.43181728 10.909089 -3.1875 12.5 C-5.76072049 20.41760152 -5.15213447 29.27825477 -5.125 37.5 C-5.12886719 38.67175781 -5.13273437 39.84351563 -5.13671875 41.05078125 C-5.25184099 52.96567883 -5.25184099 52.96567883 -2.625 64.5 C-2.23248047 65.59634766 -2.23248047 65.59634766 -1.83203125 66.71484375 C-1.55746094 67.46894531 -1.28289062 68.22304687 -1 69 C-0.43288306 70.68595399 0.12976021 72.37342072 0.6875 74.0625 C0.93886719 74.81660156 1.19023438 75.57070312 1.44921875 76.34765625 C1.63097656 76.89292969 1.81273438 77.43820313 2 78 C-0.31 76.68 -2.62 75.36 -5 74 C-5 73.34 -5 72.68 -5 72 C-4.34 72 -3.68 72 -3 72 C-3.62390625 71.00355469 -4.2478125 70.00710937 -4.890625 68.98046875 C-7.01845435 65.23800346 -8.06671295 61.54665598 -8.75 57.3125 C-8.86923828 56.58337402 -8.98847656 55.85424805 -9.11132812 55.10302734 C-11.89854793 36.2654032 -10.76533508 16.30179313 0 0 Z " fill="#822B6F" transform="translate(81,135)"/>
<path d="M0 0 C0.99 0 1.98 0 3 0 C3.26941406 0.71671875 3.53882813 1.4334375 3.81640625 2.171875 C5.00430135 5.01027782 6.43212599 7.56867225 7.9375 10.25 C17.95365737 30.6251661 16.7700339 62.29620275 11 84 C9.88333395 86.66213187 9.05843907 87.94156093 7 90 C6.01 89.67 5.02 89.34 4 89 C4.6496875 87.453125 4.6496875 87.453125 5.3125 85.875 C13.78021412 63.32118324 14.48182366 34.36941802 5.17431641 12.01708984 C3.94296535 9.31382814 2.59246942 6.70600356 1.13671875 4.1171875 C0 2 0 2 0 0 Z " fill="#ED3B37" transform="translate(174,94)"/>
<path d="M0 0 C0 0.66 0 1.32 0 2 C-1.25103516 2.56267578 -1.25103516 2.56267578 -2.52734375 3.13671875 C-12.01708797 7.45221526 -20.73997812 11.99188703 -29.25 18 C-29.84095459 18.41540039 -30.43190918 18.83080078 -31.04077148 19.25878906 C-34.70337318 21.89441072 -37.86806811 24.73046126 -41 28 C-41.763125 28.70125 -42.52625 29.4025 -43.3125 30.125 C-46.59574257 33.63730601 -49.27976335 37.44496905 -52.03515625 41.37890625 C-53.86967812 43.82615112 -55.82465419 45.86083458 -58 48 C-58.66 48.99 -59.32 49.98 -60 51 C-59.43697042 47.05879291 -58.3208055 44.2491277 -56 41 C-55.34 41 -54.68 41 -54 41 C-54.103125 40.13375 -54.20625 39.2675 -54.3125 38.375 C-53.69452352 31.70085397 -47.76000965 27.73848653 -42.93359375 23.60546875 C-41.33042791 22.2743553 -39.69977935 20.97642204 -38.0625 19.6875 C-35.91019125 18.16126242 -35.91019125 18.16126242 -35 16 C-33.44725137 15.06835082 -31.88656875 14.14835568 -30.296875 13.28125 C-28.53540636 12.29866205 -26.80032365 11.2686465 -25.078125 10.21875 C-24.04171875 9.5896875 -23.0053125 8.960625 -21.9375 8.3125 C-20.95652344 7.71050781 -19.97554687 7.10851562 -18.96484375 6.48828125 C-15.90865699 4.95414798 -13.38089093 4.37677091 -10 4 C-10 3.34 -10 2.68 -10 2 C-6.38026598 0.68373308 -3.90432869 0 0 0 Z " fill="#731E61" transform="translate(139,88)"/>
<path d="M0 0 C0 0.66 0 1.32 0 2 C-2.60258324 2.83857688 -5.20685647 3.67103344 -7.8125 4.5 C-8.55048828 4.73847656 -9.28847656 4.97695312 -10.04882812 5.22265625 C-13.13255196 6.19940136 -15.74495809 7 -19 7 C-19 7.66 -19 8.32 -19 9 C-19.59425781 9.20753906 -20.18851563 9.41507813 -20.80078125 9.62890625 C-26.93690015 11.90967206 -32.14573407 14.82953034 -37.5546875 18.51171875 C-40 20 -40 20 -42.1953125 20.45703125 C-44.19373518 20.82667884 -44.19373518 20.82667884 -45.01953125 22.890625 C-45.34308594 23.58671875 -45.66664062 24.2828125 -46 25 C-47.69921875 26.421875 -47.69921875 26.421875 -49.6875 27.75 C-56.49896694 32.64882676 -61.28526139 39.14219838 -66 46 C-66 39.23597419 -59.25966689 33.74759826 -55.0234375 28.9765625 C-53 27 -53 27 -51 27 C-50.67 26.01 -50.34 25.02 -50 24 C-46.49767429 20.74784042 -43.06317636 18.424644 -38.88232422 16.07739258 C-37.05590403 15.03199799 -35.27259893 13.93806047 -33.4921875 12.81640625 C-23.43709305 6.52353443 -12.23906633 -0.33997406 0 0 Z " fill="#37082D" transform="translate(148,83)"/>
<path d="M0 0 C12.93459341 1.17587213 23.36446737 7.0369819 34 14 C35.05574219 14.66773437 36.11148438 15.33546875 37.19921875 16.0234375 C48.84411679 23.96936793 59.45343001 37.49467142 64 51 C63.67 51.99 63.34 52.98 63 54 C62.6596875 53.26136719 62.319375 52.52273437 61.96875 51.76171875 C58.35870037 44.20557765 54.14719652 37.59549676 49 31 C48.360625 30.154375 47.72125 29.30875 47.0625 28.4375 C44.92663001 25.91329001 42.725062 23.97462023 40.125 21.9375 C39.30257812 21.28652344 38.48015625 20.63554688 37.6328125 19.96484375 C32.73807267 16.31194444 27.78983447 13.26681679 22.3125 10.5625 C21.70744629 10.2631958 21.10239258 9.9638916 20.47900391 9.65551758 C15.79783544 7.35430191 11.06995075 5.16488689 6.3046875 3.04296875 C4.17432285 2.07888848 2.08350797 1.06095682 0 0 Z " fill="#75120F" transform="translate(121,53)"/>
<path d="M0 0 C2.6996774 2.31933611 3.52766731 4.1346541 4.375 7.5625 C6.26969835 14.36346985 8.80625041 21.07223758 14 26 C17 30.55555556 17 30.55555556 17 33 C17.66 33 18.32 33 19 33 C19 33.99 19 34.98 19 36 C19.66 36 20.32 36 21 36 C23.625 38.375 23.625 38.375 26 41 C26 41.66 26 42.32 26 43 C19.65901203 41.83083736 16.39178222 36.91551908 12.7578125 31.9140625 C6.31422114 22.44027107 -0.58055479 11.77484195 0 0 Z " fill="#751C62" transform="translate(52,164)"/>
<path d="M0 0 C1.4065854 4.2197562 -0.2966719 7.05768714 -1.875 11 C-2.43512917 12.4374091 -2.99503366 13.87490577 -3.5546875 15.3125 C-4.03164062 16.529375 -4.50859375 17.74625 -5 19 C-5.33 19.99 -5.66 20.98 -6 22 C-6.99 22.33 -7.98 22.66 -9 23 C-10.36730641 25.02098015 -10.36730641 25.02098015 -11.625 27.5 C-14.91234196 33.2611498 -19.14520022 37.5335842 -24 42 C-24.66 41.67 -25.32 41.34 -26 41 C-25.401875 40.443125 -24.80375 39.88625 -24.1875 39.3125 C-21.99327327 36.99288889 -20.62740974 34.73421234 -19 32 C-18.00692179 30.66150329 -17.00642948 29.32848691 -16 28 C-10.43357528 20.17594808 -6.34386581 11.42787327 -2.01220703 2.88256836 C-1 1 -1 1 0 0 Z " fill="#CC910D" transform="translate(226,164)"/>
<path d="M0 0 C0.33 0 0.66 0 1 0 C1.02578125 1.258125 1.0515625 2.51625 1.078125 3.8125 C1.49202635 17.90867876 2.28077899 39.28077899 13 50 C13.04063832 51.66617115 13.042721 53.33388095 13 55 C12.01 54.67 11.02 54.34 10 54 C8.8125 50.9375 8.8125 50.9375 8 48 C7.34 48 6.68 48 6 48 C5.72285156 47.14535156 5.44570312 46.29070312 5.16015625 45.41015625 C4.79792969 44.30542969 4.43570313 43.20070312 4.0625 42.0625 C3.70285156 40.96035156 3.34320313 39.85820312 2.97265625 38.72265625 C2.26143332 36.11876525 2.26143332 36.11876525 1 35 C0.17700184 30.35993709 -0.11934448 25.89775208 -0.09765625 21.19140625 C-0.09443359 19.95068359 -0.09121094 18.70996094 -0.08789062 17.43164062 C-0.07951172 16.15482422 -0.07113281 14.87800781 -0.0625 13.5625 C-0.05798828 12.25861328 -0.05347656 10.95472656 -0.04882812 9.61132812 C-0.03709251 6.40750448 -0.02067363 3.20377637 0 0 Z " fill="#E4A31A" transform="translate(84,161)"/>
<path d="M0 0 C0.99 0 1.98 0 3 0 C1.68462703 3.69867251 0.08520735 6.44891315 -2.375 9.5 C-2.96023437 10.2321875 -3.54546875 10.964375 -4.1484375 11.71875 C-4.75945312 12.4715625 -5.37046875 13.224375 -6 14 C-6.62519531 14.825 -7.25039062 15.65 -7.89453125 16.5 C-13.42878492 23.07128451 -20.95135535 28.14426702 -28 33 C-28.33 32.01 -28.66 31.02 -29 30 C-28.01 30 -27.02 30 -26 30 C-25.90203125 29.40316406 -25.8040625 28.80632812 -25.703125 28.19140625 C-24.85876666 25.55982276 -23.87452407 24.66944897 -21.75 22.9375 C-20.87601563 22.20853516 -20.87601563 22.20853516 -19.984375 21.46484375 C-18 20 -18 20 -15.55078125 18.61328125 C-8.72058851 14.29341969 -3.57603886 7.15207773 0 0 Z " fill="#EDAB20" transform="translate(217,186)"/>
<path d="M0 0 C1.23925303 3.48738512 0.7983396 5.24703368 -0.75 8.5625 C-1.09546875 9.32691406 -1.4409375 10.09132812 -1.796875 10.87890625 C-3.00153781 13.00271113 -4.24500688 14.32579941 -6 16 C-6.91234964 17.23799656 -7.80728794 18.4889512 -8.6875 19.75 C-11.96404607 24.16726952 -15.72193247 27.57107631 -20 31 C-20.65097656 31.5259375 -21.30195313 32.051875 -21.97265625 32.59375 C-34.04241071 42 -34.04241071 42 -40 42 C-40 41.34 -40 40.68 -40 40 C-39.05640625 39.55011719 -38.1128125 39.10023438 -37.140625 38.63671875 C-20.58292986 30.45975802 -6.435394 17.82109107 0 0 Z " fill="#99201D" transform="translate(226,136)"/>
<path d="M0 0 C1.54296875 1.015625 1.54296875 1.015625 3 3 C2.94323521 5.7127596 2.73191617 8.09288946 2.3125 10.75 C2.22033203 11.4409375 2.12816406 12.131875 2.03320312 12.84375 C1.3903847 17.37327849 0.33442442 21.62635588 -1 26 C-1.34135927 27.33130115 -1.67925956 28.66358148 -2 30 C-3.65 30.33 -5.3 30.66 -7 31 C-6.3503125 29.205625 -6.3503125 29.205625 -5.6875 27.375 C-2.73717198 18.52401594 -0.92766802 9.27668021 0 0 Z " fill="#EF4743" transform="translate(185,153)"/>
<path d="M0 0 C3.45340583 2.96006214 5.1892023 6.04782809 7.0703125 10.09765625 C8.06810253 12.24627513 8.06810253 12.24627513 10 15 C15.01643988 29.353609 14.43157643 43.98280018 14 59 C13.67 59 13.34 59 13 59 C12.98018066 58.28980713 12.96036133 57.57961426 12.93994141 56.84790039 C12.84384804 53.5857696 12.7345145 50.32420672 12.625 47.0625 C12.5940625 45.94552734 12.563125 44.82855469 12.53125 43.67773438 C12.32786875 37.89831718 11.91658427 32.4965221 10.41552734 26.90014648 C10 25 10 25 10 21 C9.34 21 8.68 21 8 21 C7.67386719 20.10796875 7.34773437 19.2159375 7.01171875 18.296875 C6.57472656 17.12640625 6.13773438 15.9559375 5.6875 14.75 C5.25824219 13.58984375 4.82898438 12.4296875 4.38671875 11.234375 C3.17739323 8.04568823 3.17739323 8.04568823 1.33203125 5.828125 C0 4 0 4 0 0 Z " fill="#BB2A26" transform="translate(177,94)"/>
<path d="M0 0 C2.1414319 3.21214784 3.23142369 6.1909106 4.5625 9.8125 C7.01379406 16.26593912 10.1695705 21.85553612 14.10375977 27.51879883 C17 31.72434089 17 31.72434089 17 35 C13.09524747 31.50627405 11.57032382 28.93530344 10 24 C9.01 23.67 8.02 23.34 7 23 C2.55953024 16.24047185 -0.51024345 8.16389514 0 0 Z " fill="#571248" transform="translate(55,164)"/>
<path d="M0 0 C0.33 0 0.66 0 1 0 C1.07516846 0.88147705 1.15033691 1.7629541 1.2277832 2.67114258 C1.51612482 5.99502613 1.81359617 9.31784574 2.11694336 12.64038086 C2.24551287 14.06844941 2.37061511 15.49683513 2.49194336 16.92553711 C3.16341257 24.80355652 4.02639403 32.30613033 6.50073242 39.86987305 C7 42 7 42 6 45 C5.34 43.35 4.68 41.7 4 40 C3.34 40 2.68 40 2 40 C2.33 39.01 2.66 38.02 3 37 C2.34 36.01 1.68 35.02 1 34 C-1.12040862 23.01788366 -0.09651279 11.1242124 0 0 Z " fill="#681856" transform="translate(69,160)"/>
<path d="M0 0 C0.33 0 0.66 0 1 0 C1.8713339 11.02306543 1.47015687 18.21467466 -6 27 C-8.59074652 29.99262437 -11.2346662 32.91474674 -13.9609375 35.78515625 C-16.02802646 37.82539478 -16.02802646 37.82539478 -17 40 C-19.5625 40.625 -19.5625 40.625 -22 41 C-19.24496157 37.71478236 -16.50896653 34.49655271 -13.4375 31.5 C-11.42873209 29.43972522 -9.92499382 27.54023222 -8.3125 25.1875 C-7.549375 24.135625 -6.78625 23.08375 -6 22 C-5.34 22 -4.68 22 -4 22 C-3.87625 21.2575 -3.7525 20.515 -3.625 19.75 C-3 17 -3 17 -2 15.25 C-0.66196519 12.23942168 -0.57173229 9.52887148 -0.375 6.25 C-0.30023438 5.07953125 -0.22546875 3.9090625 -0.1484375 2.703125 C-0.09945312 1.81109375 -0.05046875 0.9190625 0 0 Z " fill="#CD2722" transform="translate(227,127)"/>
<path d="M0 0 C-18.46476478 14.54487058 -18.46476478 14.54487058 -28 14 C-27.67 13.34 -27.34 12.68 -27 12 C-24.35139573 11.40644386 -21.70802678 11.25790731 -19 11 C-19 10.01 -19 9.02 -19 8 C-16.8828125 6.46484375 -16.8828125 6.46484375 -14.125 4.9375 C-10.30544968 2.81196262 -10.30544968 2.81196262 -7 0 C-3.99340864 -1.066855 -3.14820941 -1.04940314 0 0 Z " fill="#DF3833" transform="translate(210,168)"/>
<path d="M0 0 C0.66 0 1.32 0 2 0 C7.62908012 15.95252226 7.62908012 15.95252226 8 23 C8.03867188 23.70898438 8.07734375 24.41796875 8.1171875 25.1484375 C8.242251 28.99761419 8.18467355 30.72298968 6 34 C5.94392578 32.64068359 5.94392578 32.64068359 5.88671875 31.25390625 C5.49320718 23.96236838 4.64846784 17.7833207 2 11 C0.7593044 7.01671411 0 4.18444186 0 0 Z " fill="#E0312D" transform="translate(222,107)"/>
<path d="M0 0 C0.33 0 0.66 0 1 0 C1.9217469 10.13921588 -2.79922563 19.55939898 -8 28 C-9.37693858 23.86918427 -7.80094855 21.22892577 -6.25 17.375 C-5.68888238 15.93537145 -5.12897868 14.49526914 -4.5703125 13.0546875 C-4.29864258 12.35956055 -4.02697266 11.66443359 -3.74707031 10.94824219 C-2.36395747 7.34130085 -1.18179968 3.67671013 0 0 Z " fill="#F7BB50" transform="translate(229,158)"/>
<path d="M0 0 C0 0.66 0 1.32 0 2 C-1.30324219 2.59748047 -1.30324219 2.59748047 -2.6328125 3.20703125 C-3.78523438 3.73683594 -4.93765625 4.26664062 -6.125 4.8125 C-7.26195312 5.33457031 -8.39890625 5.85664062 -9.5703125 6.39453125 C-11.81014097 7.44301588 -14.02842929 8.53917652 -16.21875 9.6875 C-19.37231884 11.17570103 -21.55480557 11.24608532 -25 11 C-20.91129463 7.29461076 -15.70674915 4 -10 4 C-10 3.34 -10 2.68 -10 2 C-6.38026598 0.68373308 -3.90432869 0 0 0 Z " fill="#6C1759" transform="translate(139,88)"/>
<path d="M0 0 C9.97289448 -0.3910939 9.97289448 -0.3910939 14 2 C14.33 2.99 14.66 3.98 15 5 C15.763125 5.144375 16.52625 5.28875 17.3125 5.4375 C20 6 20 6 23 7 C23 7.66 23 8.32 23 9 C22.44054687 8.82984375 21.88109375 8.6596875 21.3046875 8.484375 C13.89214065 6.24392676 6.44931312 4.11457447 -1 2 C-0.67 1.34 -0.34 0.68 0 0 Z " fill="#D93C38" transform="translate(112,53)"/>
<path d="M0 0 C0.53625 0.268125 1.0725 0.53625 1.625 0.8125 C1.00625 0.895 0.3875 0.9775 -0.25 1.0625 C-2.53916549 1.58949637 -2.53916549 1.58949637 -3.27734375 3.6875 C-4.55776263 6.16631805 -5.76037002 7.02473145 -8.0625 8.5625 C-14.87396694 13.46132676 -19.66026139 19.95469838 -24.375 26.8125 C-24.375 20.04847419 -17.63466689 14.56009826 -13.3984375 9.7890625 C-11.375 7.8125 -11.375 7.8125 -9.375 7.8125 C-9.045 6.8225 -8.715 5.8325 -8.375 4.8125 C-3.19514388 -0.2522482 -3.19514388 -0.2522482 0 0 Z " fill="#3E0B32" transform="translate(106.375,102.1875)"/>
<path d="M0 0 C0.33 0.99 0.66 1.98 1 3 C0.67 3.66 0.34 4.32 0 5 C-2.90625 5.37890625 -2.90625 5.37890625 -6.5 5.5625 C-10.56998767 5.41799469 -10.56998767 5.41799469 -14 7 C-15.66617115 7.04063832 -17.33388095 7.042721 -19 7 C-19 6.34 -19 5.68 -19 5 C-16.58570231 4.15919981 -14.16896007 3.32718598 -11.75 2.5 C-10.72712891 2.14228516 -10.72712891 2.14228516 -9.68359375 1.77734375 C-6.23586997 0.60578713 -3.68297096 0 0 0 Z " fill="#F94C48" transform="translate(125,48)"/>
<path d="M0 0 C0.45890625 0.40992188 0.9178125 0.81984375 1.390625 1.2421875 C2.00421875 1.78101563 2.6178125 2.31984375 3.25 2.875 C3.85328125 3.40867188 4.4565625 3.94234375 5.078125 4.4921875 C6.97418746 5.9797487 8.81290005 7.00322436 11 8 C11 8.99 11 9.98 11 11 C12.216875 11.12375 13.43375 11.2475 14.6875 11.375 C18.06479059 11.78891306 20.89756695 12.54573451 24 14 C18.93317561 15.68121175 14.78482957 13.95996663 10 12 C6.50606669 9.99229205 2.86743399 7.86743399 0 5 C-0.04063832 3.33382885 -0.042721 1.66611905 0 0 Z " fill="#EEB239" transform="translate(97,216)"/>
<path d="M0 0 C0.33 0 0.66 0 1 0 C1.20496094 1.30195313 1.40992188 2.60390625 1.62109375 3.9453125 C1.89321536 5.67187718 2.16535154 7.39843956 2.4375 9.125 C2.57220703 9.9809375 2.70691406 10.836875 2.84570312 11.71875 C2.97783203 12.55664062 3.10996094 13.39453125 3.24609375 14.2578125 C3.37226074 15.07540039 3.49842773 15.89298828 3.62841797 16.73535156 C3.94137231 18.64268698 4.32414536 20.53837635 4.72265625 22.4296875 C5 25 5 25 3 28 C-0.8067217 22.28991745 -0.12742268 15.75710115 -0.0625 9.125 C-0.05798828 8.24585938 -0.05347656 7.36671875 -0.04882812 6.4609375 C-0.03712337 4.30726197 -0.01919069 2.15362183 0 0 Z " fill="#621551" transform="translate(51,139)"/>
<path d="M0 0 C2.63085748 3.94628622 4.11384244 8.23085275 5.7890625 12.63867188 C7.34002204 16.65985428 7.34002204 16.65985428 10 20 C10.125 22.625 10.125 22.625 10 25 C9.01 24.67 8.02 24.34 7 24 C5.8125 20.9375 5.8125 20.9375 5 18 C4.34 18 3.68 18 3 18 C1.88482498 12.01270113 0.80499864 6.03748977 0 0 Z " fill="#C48D22" transform="translate(87,191)"/>
<path d="M0 0 C0.33 1.32 0.66 2.64 1 4 C0.34 4 -0.32 4 -1 4 C-1.268125 4.70125 -1.53625 5.4025 -1.8125 6.125 C-5.11111111 14.11111111 -5.11111111 14.11111111 -8 17 C-8.88778692 18.96488831 -8.88778692 18.96488831 -9.625 21.125 C-9.88539062 21.84945312 -10.14578125 22.57390625 -10.4140625 23.3203125 C-10.60742188 23.87460938 -10.80078125 24.42890625 -11 25 C-12.99698011 19.00905966 -8.51383722 11.89714916 -5.9375 6.375 C-4 3 -4 3 -1 2 C-0.67 1.34 -0.34 0.68 0 0 Z " fill="#581249" transform="translate(84,125)"/>
<path d="M0 0 C0.99 0 1.98 0 3 0 C0.29175673 7.57774471 -5.19924594 13.55080679 -11 19 C-10.71648397 14.3219855 -8.57621064 12.14756227 -5.56640625 8.84765625 C-3.24745803 6.11233828 -1.67769813 3.16181571 0 0 Z " fill="#F5B844" transform="translate(217,186)"/>
<path d="M0 0 C1.4065854 4.2197562 -0.2966719 7.05768714 -1.875 11 C-2.43512917 12.4374091 -2.99503366 13.87490577 -3.5546875 15.3125 C-4.03164062 16.529375 -4.50859375 17.74625 -5 19 C-5.33 19.99 -5.66 20.98 -6 22 C-8.0625 22.6875 -8.0625 22.6875 -10 23 C-9.731875 22.360625 -9.46375 21.72125 -9.1875 21.0625 C-8.2440892 18.62949321 -7.45465346 16.23888993 -6.6875 13.75 C-5.07392947 8.80116253 -2.66400067 4.45404065 0 0 Z " fill="#E0A11C" transform="translate(226,164)"/>
<path d="M0 0 C4.50513431 4.23209586 8.514292 8.88695859 12 14 C12 14.66 12 15.32 12 16 C10.68 16 9.36 16 8 16 C4.71254803 11.89068504 0 5.39833264 0 0 Z " fill="#E0312D" transform="translate(165,78)"/>
<path d="M0 0 C8.25703296 7.48293612 15.14373856 17.54452965 19 28 C18.67 28.99 18.34 29.98 18 31 C17.48953125 29.89205078 17.48953125 29.89205078 16.96875 28.76171875 C12.86187396 20.16567767 7.94059868 12.62024898 1.7578125 5.37109375 C0 3 0 3 0 0 Z " fill="#921F1C" transform="translate(166,76)"/>
<path d="M0 0 C0.66 0.33 1.32 0.66 2 1 C-12.39086294 15 -12.39086294 15 -21 15 C-21 14.34 -21 13.68 -21 13 C-19.98679688 12.48050781 -18.97359375 11.96101562 -17.9296875 11.42578125 C-16.5779249 10.72173823 -15.22637359 10.01728941 -13.875 9.3125 C-13.20984375 8.97283203 -12.5446875 8.63316406 -11.859375 8.28320312 C-7.41041296 5.94967892 -3.75554454 3.34021173 0 0 Z " fill="#741310" transform="translate(207,163)"/>
<path d="M0 0 C0.49628906 0.39832031 0.99257812 0.79664063 1.50390625 1.20703125 C8.22803481 6.45108597 14.73531647 9.11507218 23 11 C23 11.33 23 11.66 23 12 C17.07399058 13.67474179 13.72745257 12.46239011 8.37890625 9.5390625 C5.00951464 7.35919338 2.59034186 5.06751009 0 2 C0 1.34 0 0.68 0 0 Z " fill="#976B0E" transform="translate(97,214)"/>
<path d="M0 0 C1 3 1 3 0.1015625 4.91015625 C-4.67196011 11.8683863 -9.91466124 19.27644083 -17 24 C-15.48602956 20.47277101 -13.39331518 18.13519646 -10.75 15.375 C-6.37253015 10.62272255 -3.07398109 5.66576907 0 0 Z " fill="#E93834" transform="translate(227,143)"/>
<path d="M0 0 C5.79486884 1.30935515 10.7146809 3.05254681 14.0625 8.125 C15 11 15 11 14 13 C12.8274869 12.04882866 11.66212985 11.08882991 10.5 10.125 C9.8503125 9.59132813 9.200625 9.05765625 8.53125 8.5078125 C8.0259375 8.01023437 7.520625 7.51265625 7 7 C7 6.34 7 5.68 7 5 C6.21625 4.731875 5.4325 4.46375 4.625 4.1875 C2 3 2 3 0 0 Z " fill="#DD3430" transform="translate(152,71)"/>
<path d="M0 0 C-0.60328125 0.45890625 -1.2065625 0.9178125 -1.828125 1.390625 C-2.62734375 2.00421875 -3.4265625 2.6178125 -4.25 3.25 C-5.43335937 4.15492187 -5.43335937 4.15492187 -6.640625 5.078125 C-8.91631157 6.93182995 -10.96371558 8.88898954 -13 11 C-13 6.87152383 -11.54007931 5.20852124 -9 2 C-3.82394366 -1.27464789 -3.82394366 -1.27464789 0 0 Z " fill="#721E60" transform="translate(108,107)"/>
<path d="M0 0 C0.66 0.33 1.32 0.66 2 1 C1.74605469 1.53367188 1.49210937 2.06734375 1.23046875 2.6171875 C-1.39012212 8.29022691 -3.34071751 13.97881581 -5 20 C-5.66 20 -6.32 20 -7 20 C-6.2272003 12.58112293 -4.11699588 6.27351753 0 0 Z " fill="#7B1F67" transform="translate(81,135)"/>
<path d="M0 0 C0.98484375 0.00902344 1.9696875 0.01804687 2.984375 0.02734375 C4.10585937 0.04474609 4.10585937 0.04474609 5.25 0.0625 C1.94001895 2.26915404 -0.57021436 2.84512095 -4.4375 3.6875 C-5.61699219 3.94789062 -6.79648438 4.20828125 -8.01171875 4.4765625 C-9.36716797 4.76660156 -9.36716797 4.76660156 -10.75 5.0625 C-10.42 3.7425 -10.09 2.4225 -9.75 1.0625 C-6.43929162 0.06140485 -3.44915231 -0.04106134 0 0 Z " fill="#7A2E6A" transform="translate(149.75,84.9375)"/>
<path d="M0 0 C4.20240011 3.71750779 6.99782679 8.31660979 10 13 C9.67 13.66 9.34 14.32 9 15 C4.73347598 11.2075342 2.10519025 7.32766024 0 2 C0 1.34 0 0.68 0 0 Z " fill="#4B0F3D" transform="translate(63,184)"/>
<path d="M0 0 C-2.33081214 5.72108435 -7.22850416 9.31913178 -12 13 C-10.49017269 9.57143381 -8.48286031 7.04321784 -6 4.25 C-5.29875 3.45078125 -4.5975 2.6515625 -3.875 1.828125 C-2 0 -2 0 0 0 Z " fill="#611050" transform="translate(97,112)"/>
<path d="M0 0 C0.99 0.33 1.98 0.66 3 1 C-0.96 3.97 -4.92 6.94 -9 10 C-9.33 9.01 -9.66 8.02 -10 7 C-9.01 7 -8.02 7 -7 7 C-7 6.34 -7 5.68 -7 5 C-5.57421875 3.67578125 -5.57421875 3.67578125 -3.6875 2.3125 C-3.07261719 1.85488281 -2.45773438 1.39726562 -1.82421875 0.92578125 C-0.92123047 0.46751953 -0.92123047 0.46751953 0 0 Z " fill="#F5B948" transform="translate(198,209)"/>
<path d="M0 0 C3.71134205 3.1994328 5.42930118 6.3705719 7 11 C6.57421875 13.21875 6.57421875 13.21875 6 15 C5.17988688 13.44148245 4.36923787 11.87798284 3.5625 10.3125 C3.11003906 9.44238281 2.65757812 8.57226562 2.19140625 7.67578125 C1.04008072 5.09001736 0.43679247 2.78643472 0 0 Z " fill="#CF2722" transform="translate(177,94)"/>
<path d="M0 0 C0.66 0.66 1.32 1.32 2 2 C1.29875 2.66 0.5975 3.32 -0.125 4 C-3.49416695 7.34985941 -6.22468725 11.15652564 -9 15 C-9 9.04569035 -3.73158886 4.35352033 0 0 Z " fill="#441038" transform="translate(91,114)"/>
<path d="M0 0 C0.99 1.32 1.98 2.64 3 4 C2.01 4.495 2.01 4.495 1 5 C0.31527335 6.88764903 0.31527335 6.88764903 -0.125 9.0625 C-0.29257813 9.79597656 -0.46015625 10.52945313 -0.6328125 11.28515625 C-0.75398438 11.85105469 -0.87515625 12.41695312 -1 13 C-1.33 13 -1.66 13 -2 13 C-2.16682272 8.07872966 -2.24828052 4.49656104 0 0 Z " fill="#F9BF62" transform="translate(82,155)"/>
<path d="M0 0 C0.66 0 1.32 0 2 0 C3.84827434 3.6125362 5.55049545 7.2089881 7 11 C6.01 10.67 5.02 10.34 4 10 C2.8125 6.9375 2.8125 6.9375 2 4 C1.34 4 0.68 4 0 4 C0 2.68 0 1.36 0 0 Z " fill="#E8A612" transform="translate(90,205)"/>
<path d="M0 0 C0.33 0.99 0.66 1.98 1 3 C0.05988318 4.70116376 -0.94895617 6.36504293 -2 8 C-2.33 8.9075 -2.66 9.815 -3 10.75 C-3.33 11.4925 -3.66 12.235 -4 13 C-4.99 13.33 -5.98 13.66 -7 14 C-5.23570801 9.02790438 -2.6060834 4.56561939 0 0 Z " fill="#BC881D" transform="translate(219,177)"/>
<path d="M0 0 C1.97986082 0.11347619 3.95891598 0.2410935 5.9375 0.375 C7.03964844 0.44460937 8.14179688 0.51421875 9.27734375 0.5859375 C10.62505859 0.79089844 10.62505859 0.79089844 12 1 C12.33 1.66 12.66 2.32 13 3 C9.7 3 6.4 3 3 3 C3 2.34 3 1.68 3 1 C2.01 0.67 1.02 0.34 0 0 Z " fill="#671455" transform="translate(145,82)"/>
<path d="M0 0 C-4.29 1.65 -8.58 3.3 -13 5 C-13.33 4.34 -13.66 3.68 -14 3 C-11.39395012 1.26263341 -9.92766764 0.54996173 -7 -0.1875 C-6.319375 -0.36667969 -5.63875 -0.54585937 -4.9375 -0.73046875 C-3 -1 -3 -1 0 0 Z " fill="#F3BA4B" transform="translate(180,224)"/>
<path d="M0 0 C0.66 0 1.32 0 2 0 C1.34 2.97 0.68 5.94 0 9 C-1.32 9.33 -2.64 9.66 -4 10 C-2.66666667 6.66666667 -1.33333333 3.33333333 0 0 Z " fill="#EAA817" transform="translate(220,177)"/>
<path d="M0 0 C1.98 0.99 1.98 0.99 4 2 C4.1953125 8.0546875 4.1953125 8.0546875 4 10 C3.34 10.66 2.68 11.32 2 12 C1.34 8.04 0.68 4.08 0 0 Z " fill="#EB4A46" transform="translate(182,113)"/>
<path d="M0 0 C-3.20336822 2.83374881 -5.78087253 3.5205537 -10 4 C-7.56830601 0.23087432 -7.56830601 0.23087432 -5 -0.8125 C-3 -1 -3 -1 0 0 Z " fill="#D92F2A" transform="translate(210,168)"/>
<path d="M0 0 C2.66666667 2.66666667 5.33333333 5.33333333 8 8 C7.67 8.66 7.34 9.32 7 10 C2.78577758 7.11658466 1.23924145 4.95696581 0 0 Z " fill="#CC2521" transform="translate(165,78)"/>
<path d="M0 0 C-0.99 0.33 -1.98 0.66 -3 1 C-3 1.66 -3 2.32 -3 3 C-5.97 3 -8.94 3 -12 3 C-12 2.67 -12 2.34 -12 2 C-10.37787941 1.47026689 -8.75218416 0.95146893 -7.125 0.4375 C-6.22007812 0.14746094 -5.31515625 -0.14257812 -4.3828125 -0.44140625 C-2 -1 -2 -1 0 0 Z " fill="#E4A417" transform="translate(169,226)"/>
<path d="M0 0 C0.33 0.66 0.66 1.32 1 2 C-0.98 4.31 -2.96 6.62 -5 9 C-5.66 8.34 -6.32 7.68 -7 7 C-4.69 4.69 -2.38 2.38 0 0 Z " fill="#871A17" transform="translate(215,155)"/>
<path d="M0 0 C0.66 0.66 1.32 1.32 2 2 C-1.465 4.97 -1.465 4.97 -5 8 C-5 5 -5 5 -2.5 2.3125 C-1.675 1.549375 -0.85 0.78625 0 0 Z " fill="#7E2A6C" transform="translate(100,110)"/>
<path d="M0 0 C2.92393881 0.62655832 5.44829129 1.4161808 8 3 C8.33 3.99 8.66 4.98 9 6 C8.01 6.495 8.01 6.495 7 7 C7 6.34 7 5.68 7 5 C6.21625 4.731875 5.4325 4.46375 4.625 4.1875 C2 3 2 3 0 0 Z " fill="#E54945" transform="translate(152,71)"/>
<path d="M0 0 C-1.1875 1.5 -1.1875 1.5 -3 3 C-5.6875 3.1875 -5.6875 3.1875 -8 3 C-8 2.34 -8 1.68 -8 1 C-3.375 -1.125 -3.375 -1.125 0 0 Z " fill="#ED5B58" transform="translate(114,52)"/>
<path d="M0 0 C2.60334924 2.71182212 2.99456691 3.89133813 3.1875 7.75 C3.0946875 9.35875 3.0946875 9.35875 3 11 C2.690625 10.360625 2.38125 9.72125 2.0625 9.0625 C1.1654837 7.06389179 1.1654837 7.06389179 0 6 C-0.04080783 4.00041636 -0.04254356 1.99954746 0 0 Z " fill="#E9322D" transform="translate(182,107)"/>
<path d="M0 0 C1.98 0 3.96 0 6 0 C6 0.66 6 1.32 6 2 C3.09399739 3.25664978 1.20395416 4 -2 4 C-1.34 2.68 -0.68 1.36 0 0 Z " fill="#C82420" transform="translate(185,177)"/>
</svg>
