<?xml version="1.0" encoding="UTF-8"?>
<svg version="1.1" xmlns="http://www.w3.org/2000/svg" width="1000" height="1000">
<path d="M0 0 C330 0 660 0 1000 0 C1000 330 1000 660 1000 1000 C670 1000 340 1000 0 1000 C0 670 0 340 0 0 Z " fill="#FEFEFE" transform="translate(0,0)"/>
<path d="M0 0 C16.11680972 12.44713612 26.94142816 27.68959024 30.2890625 48.0859375 C32.2748991 69.91478002 27.58662466 88.01952874 13.71446403 105.23618625 C9.26605299 110.46289397 4.39220198 115.2607376 -0.46622753 120.10128975 C-1.65219548 121.29025923 -2.83772731 122.47966385 -4.02286568 123.66946024 C-7.27291363 126.92975386 -10.5291125 130.18384197 -13.78638068 133.43691988 C-17.33202155 136.98018935 -20.87187965 140.52922837 -24.41249496 144.07751834 C-30.61616385 150.2930216 -36.82355314 156.50478979 -43.03340912 162.71411133 C-52.26777227 171.94768064 -61.49645092 181.18691593 -70.72408829 190.42720607 C-88.16343674 207.88999188 -105.60971905 225.34584125 -123.05841603 242.79928507 C-124.98191514 244.72330789 -126.90541318 246.64733178 -128.82891059 248.5713563 C-129.30624746 249.04882223 -129.78358433 249.52628816 -130.27538596 250.01822276 C-140.86024586 260.60599019 -151.44347908 271.19538296 -162.02647273 281.78501575 C-166.38619636 286.14746288 -170.74596621 290.50986382 -175.10573608 294.87226474 C-175.58747139 295.35429097 -176.06920671 295.8363172 -176.56554006 296.33295028 C-204.16427576 323.94830418 -231.76538977 351.56127912 -259.37121868 379.16954231 C-260.40392931 380.20234757 -261.43663975 381.23515302 -262.46934999 382.26795866 C-267.13180878 386.93084518 -271.79427875 391.59372052 -276.45674878 396.2565958 C-278.53580565 398.33583427 -280.61486088 400.41507439 -282.69391576 402.49431485 C-283.73451922 403.53501033 -284.77512348 404.575705 -285.81572857 405.61639885 C-318.72444386 438.52792888 -351.62368431 471.44890315 -384.51538086 504.37744141 C-409.05143421 528.94097224 -433.58828175 553.50370302 -458.13478565 578.05679131 C-458.62897883 578.55111792 -459.123172 579.04544453 -459.63234073 579.55475074 C-470.48149123 590.40677365 -481.33136929 601.25806887 -492.18192177 612.10868998 C-496.06446937 615.99127727 -499.94695834 619.87392319 -503.82941684 623.75659958 C-504.79524967 624.72248605 -505.76108527 625.68836977 -506.72692364 626.6542507 C-522.10889269 642.03696285 -537.48338993 657.42711658 -552.85411994 672.82105831 C-568.76689584 688.75775864 -584.68874147 704.68535028 -600.6210207 720.60255398 C-609.80448786 729.7778636 -618.98095321 738.96004788 -628.14752418 748.15223831 C-634.27146217 754.29191025 -640.40444268 760.42244926 -646.54484614 766.54565354 C-650.0429611 770.03448291 -653.53702924 773.52711392 -657.02014752 777.030921 C-660.19292923 780.22238732 -663.37713194 783.40198722 -666.57058391 786.57276645 C-667.71274728 787.71079482 -668.85079954 788.85296932 -669.98402146 789.99990167 C-684.40223875 804.58085128 -702.16607193 815.09981429 -723.20727539 815.46630859 C-742.00062242 815.42790852 -758.34590364 810.75019321 -772.7109375 798.0859375 C-773.44957031 797.44140625 -774.18820312 796.796875 -774.94921875 796.1328125 C-788.3190256 783.66356259 -797.07558102 766.42098025 -798.03515625 748.109375 C-798.69146773 726.88022293 -792.81994853 709.0872322 -778.19547018 693.3851115 C-775.17620567 690.26771946 -772.10089279 687.20659061 -769.02625656 684.14398766 C-767.83573148 682.95076598 -766.64564336 681.75710821 -765.45595032 680.56305695 C-762.18861332 677.28628797 -758.91510516 674.01574601 -755.64054016 670.74620233 C-752.07791003 667.18684404 -748.52106777 663.6217097 -744.96347451 660.05731833 C-738.72849338 653.81203571 -732.48979028 647.57049057 -726.24862862 641.33138466 C-716.96778185 632.05358743 -707.69262964 622.77011281 -698.4185475 613.48555429 C-680.89196368 595.93962516 -663.35852146 578.40055861 -645.82283512 560.86372779 C-643.88945634 558.93021952 -641.95608075 556.99670805 -640.02270794 555.0631938 C-639.54292712 554.58337897 -639.0631463 554.10356415 -638.56882668 553.60920948 C-627.93215485 542.97172038 -617.29726546 532.33245004 -606.66269052 521.69286469 C-602.28241259 517.31053003 -597.90209633 512.9282337 -593.52178788 508.54592955 C-593.03779084 508.06171133 -592.5537938 507.57749311 -592.05513018 507.07860161 C-564.32498231 479.33580802 -536.59263835 451.59521131 -508.85570908 423.85919762 C-507.81798341 422.82150351 -506.78025779 421.78380936 -505.74253221 420.74611517 C-501.05737528 416.061105 -496.37220356 411.37610962 -491.68702768 406.6911184 C-489.59782335 404.60199633 -487.50862 402.51287327 -485.41941676 400.42375011 C-484.37373368 399.37810782 -483.32804996 398.33246615 -482.28236563 397.2868251 C-449.21147379 364.21729397 -416.1485928 331.1397734 -383.09228516 298.05566406 C-374.76224977 289.71862658 -366.43218279 281.38162067 -358.10194016 273.04479027 C-357.58900719 272.53145156 -357.07607423 272.01811285 -356.54759785 271.48921842 C-340.73814452 255.66733489 -324.92624244 239.84790187 -309.11183548 224.03096962 C-308.61532031 223.53437455 -308.11880515 223.03777948 -307.60724407 222.52613608 C-296.70749789 211.62468335 -285.80715968 200.72382276 -274.90627536 189.82350812 C-271.00578515 185.92321088 -267.10533938 182.02286921 -263.20491546 178.12250568 C-262.23460173 177.15220778 -261.26428571 176.18191217 -260.29396739 175.21161886 C-244.83601563 159.75401967 -229.3839458 144.29055689 -213.93480658 128.82415042 C-197.94248198 112.81404233 -181.94285747 96.81125734 -165.93485537 80.81682347 C-156.70591883 71.59528739 -147.48257375 62.36824016 -138.26713318 53.13321659 C-132.11263266 46.96674213 -125.95090623 40.80755195 -119.78323075 34.65425516 C-116.26824942 31.14705847 -112.7565045 27.63678115 -109.25350437 24.11761408 C-106.06444598 20.91396669 -102.86626517 17.71972681 -99.66067066 14.5326281 C-98.51201358 13.38740366 -97.36666861 12.23884462 -96.22514982 11.08650485 C-87.92254694 2.71051467 -79.33927514 -4.61197006 -68.0859375 -8.7265625 C-67.08304688 -9.10425781 -66.08015625 -9.48195312 -65.046875 -9.87109375 C-42.61206724 -16.88525496 -19.22807848 -13.57602083 0 0 Z " fill="#000000" transform="translate(847.7109375,62.9140625)"/>
<path d="M0 0 C16.13157533 12.42032333 26.95128931 27.70207215 30.296875 48.0859375 C32.26704137 69.74252877 27.69404609 87.94730933 13.91087759 105.04672027 C8.50248261 111.46816534 2.38812135 117.27985146 -3.54838562 123.20535278 C-5.06436827 124.72579299 -6.57992124 126.24666171 -8.09508353 127.76791942 C-12.24319789 131.9301612 -16.39749877 136.08617895 -20.55290258 140.24114156 C-25.03989473 144.7297865 -29.52116823 149.22413485 -34.00325012 153.71768188 C-43.2864117 163.02246796 -52.57606624 172.32074923 -61.8676537 181.61712047 C-62.37203179 182.12175973 -62.87640988 182.626399 -63.39607215 183.14633036 C-63.9015041 183.65202258 -64.40693605 184.1577148 -64.92768412 184.67873103 C-70.5392553 190.29338977 -76.14911587 195.90975678 -81.75892067 201.52618027 C-98.71272113 218.49961932 -115.66813436 235.47144308 -132.63034344 252.43647957 C-133.17228004 252.97851024 -133.71421665 253.52054091 -134.27257558 254.07899675 C-136.46863971 256.27543934 -138.66471108 258.4718747 -140.86078418 260.66830832 C-142.5135551 262.32135096 -144.16632355 263.97439609 -145.8190918 265.62744141 C-146.36523095 266.17366858 -146.9113701 266.71989576 -147.47405893 267.28267527 C-164.63657603 284.44809826 -181.78946541 301.62309268 -198.93530273 318.80517578 C-218.2143508 338.12497848 -237.5019234 357.43621829 -256.80120975 376.73580539 C-258.86025495 378.79494741 -260.91926519 380.85412437 -262.9782505 382.91332626 C-263.48520138 383.42032125 -263.99215225 383.92731624 -264.51446528 384.44967472 C-272.65947808 392.59580567 -280.79632997 400.75004093 -288.93030068 408.90719576 C-297.10891544 417.10868851 -305.29705053 425.30056736 -313.49419584 433.48354162 C-317.93147485 437.91365354 -322.36464845 442.3476754 -326.78696823 446.79272461 C-330.83950592 450.86589091 -334.90352344 454.92723207 -338.97678719 458.97966872 C-340.44411989 460.44351417 -341.90728676 461.91155058 -343.3656983 463.38428427 C-358.82015314 478.98061797 -376.38132474 491.06886375 -399.19946289 491.46630859 C-417.99280992 491.42790852 -434.33809114 486.75019321 -448.703125 474.0859375 C-449.44175781 473.44140625 -450.18039062 472.796875 -450.94140625 472.1328125 C-465.03048738 458.99273684 -472.93364951 441.58718849 -474.02734375 422.421875 C-474.70377208 402.69538371 -468.77972018 385.11827905 -455.2414946 370.50863311 C-450.85092148 365.92261179 -446.3450739 361.45006324 -441.85076904 356.96615601 C-440.3218471 355.43349452 -438.79335723 353.90040192 -437.26526093 352.36691725 C-433.07682558 348.16627453 -428.88218892 343.97187304 -424.68646598 339.77851105 C-420.15789564 335.25034943 -415.63505846 330.71646735 -411.11143494 326.18336487 C-402.25309481 317.30842718 -393.38923142 308.43902646 -384.5231339 299.57183908 C-377.31657598 292.36436109 -370.11162108 285.15528437 -362.90778351 277.94508743 C-360.83207924 275.86758802 -358.75636721 273.79009636 -356.68065286 271.71260703 C-356.1645898 271.19610187 -355.64852674 270.67959672 -355.11682541 270.1474399 C-340.60780255 255.62611462 -326.09657888 241.10699165 -311.58095932 226.59226036 C-311.03405768 226.04538988 -310.48715604 225.49851939 -309.92368162 224.93507708 C-307.15191701 222.16347867 -304.38013646 219.39189621 -301.60835239 216.62031727 C-301.05789133 216.06989609 -300.50743026 215.51947491 -299.94028855 214.95237431 C-298.82712365 213.83929028 -297.71395739 212.72620762 -296.60078977 211.61312631 C-279.27862717 194.29218943 -261.96460696 176.96314929 -244.65673828 159.62792969 C-225.20038874 140.14084656 -205.73728437 120.66054397 -186.26463246 101.18975031 C-184.18764164 99.11290874 -182.11067673 97.03604126 -180.03372955 94.95915604 C-179.52234788 94.44779767 -179.01096621 93.93643931 -178.48408812 93.40958524 C-170.26282292 85.18838153 -162.0479851 76.96078449 -153.83537443 68.73093638 C-145.57977959 60.45837274 -137.31653528 52.19351941 -129.04605523 43.93583582 C-124.56778191 39.46409541 -120.09278579 34.98920096 -115.62645531 30.5055294 C-111.53543918 26.39879309 -107.43525193 22.30144886 -103.3276557 18.21129806 C-101.84572344 16.73243788 -100.36714013 15.2502123 -98.89232859 13.7642508 C-89.58439336 4.3906389 -80.74845761 -4.09386983 -68.078125 -8.7265625 C-67.07523438 -9.10425781 -66.07234375 -9.48195313 -65.0390625 -9.87109375 C-42.87926112 -16.79927521 -18.9738294 -13.43522602 0 0 Z " fill="#000000" transform="translate(919.703125,458.9140625)"/>
</svg>
